<svg xmlns="http://www.w3.org/2000/svg" viewBox="0 0 128 128"><defs><style>.cls-1{isolation:isolate;}.cls-2{mix-blend-mode:multiply;}.Graphic-Style-2,.cls-3{fill:#302a27;}.cls-4{fill:#c49b83;}.cls-5{fill:#78c17b;}.cls-6{fill:#d94b58;}.cls-7{fill:none;}.Graphic-Style-2,.cls-7{stroke:#302a27;stroke-linecap:round;stroke-linejoin:round;stroke-width:2px;}.cls-8{opacity:0.24;}.cls-9{opacity:0.12;}</style></defs><title>apple</title><g class="cls-1"><g id="icons" class="cls-2"><path class="cls-3" d="M68.1,35a14.923,14.923,0,0,1-5.022-.866A2,2,0,0,1,61.858,32.9c-.132-.385-.258-.76-.352-1.146A14.917,14.917,0,0,1,79.8,13.509c.38.1.742.226,1.1.351a2,2,0,0,1,1.232,1.22,14.968,14.968,0,0,1-3.5,15.557A14.769,14.769,0,0,1,68.1,35Z"/><path class="cls-3" d="M75.908,15a13.009,13.009,0,0,1,3.372.444c.33.09.65.2.97.31a12.913,12.913,0,0,1-16.5,16.5c-.11-.32-.22-.64-.3-.97A12.911,12.911,0,0,1,75.908,15m0-4A16.911,16.911,0,0,0,59.576,32.278c.121.488.27.92.39,1.27a4,4,0,0,0,2.442,2.47,16.911,16.911,0,0,0,21.61-21.61,4,4,0,0,0-2.468-2.441c-.359-.123-.764-.262-1.218-.386A17.035,17.035,0,0,0,75.908,11Z"/><path class="cls-3" d="M75,116c-5.758,0-7.874-3.18-9.273-5.284C64.777,109.289,64.487,109,64,109s-.777.289-1.727,1.716C60.874,112.82,58.758,116,53,116c-6.214,0-14.023-5.759-20.379-15.029A59.83,59.83,0,0,1,22,68c0-11.959,5.106-19.445,9.391-23.619A29.271,29.271,0,0,1,51.6,36.022a25.522,25.522,0,0,1,7.746,1.188l-.242-.579c-.1-.22-.211-.491-.323-.764-.129-.314-.257-.63-.407-.936l-.9-1.7a8.992,8.992,0,0,0-.548-.917c-.146-.224-.292-.447-.429-.677A34.547,34.547,0,0,0,51.824,25.9c-1.046-1.015-1.937-1.81-2.79-2.488-.5-.411-.985-.784-1.479-1.138s-1.023-.713-1.4-.94c-.027-.017-.114-.074-.141-.092a4.388,4.388,0,0,1-1.974-2.724,4.452,4.452,0,0,1,.526-3.412,4.5,4.5,0,0,1,6.119-1.552,2.594,2.594,0,0,1,.341.223c.738.507,1.309.952,1.933,1.462.639.518,1.222,1.021,1.774,1.531,1.006.906,2.043,1.946,3.245,3.255a43.012,43.012,0,0,1,5.418,7.54c.135.253.249.455.363.657.259.461.527.938.766,1.478l.9,2.007c.226.527.4,1.037.57,1.544.077.23.155.46.236.687l.372,1.082c.018.054.034.108.048.163l.27,1.08c.131.459.251.938.357,1.432a25.3,25.3,0,0,1,9.107-1.67,27.917,27.917,0,0,1,7.018.908C93.827,39.637,106,49.394,106,68a59.909,59.909,0,0,1-10.73,33.137C88.934,110.3,81.167,116,75,116Z"/><path class="cls-3" d="M48.414,14.942A2.489,2.489,0,0,1,49.7,15.3a.5.5,0,0,1,.12.08c.72.49,1.27.92,1.87,1.41.58.47,1.14.95,1.68,1.45,1.1.99,2.13,2.05,3.13,3.14a40.967,40.967,0,0,1,5.15,7.17c.35.66.74,1.28,1.04,1.96l.91,2.02c.29.68.5,1.4.75,2.09l.36,1.05.27,1.08a22.948,22.948,0,0,1,.74,3.85,22.717,22.717,0,0,1,10.665-2.573,25.943,25.943,0,0,1,6.515.843C94.01,41.75,104,51.92,104,68c0,24-18,46-29,46-8,0-7-7-11-7s-3,7-11,7c-5.53,0-12.84-5.57-18.73-14.16C28.44,91.36,24,79.93,24,68c0-19.2,14.23-29.979,27.6-29.978A22.714,22.714,0,0,1,62.41,40.67a20.076,20.076,0,0,0-.8-2.95l-.28-.95-.38-.91c-.27-.6-.49-1.22-.78-1.81l-.92-1.75c-.29-.59-.69-1.12-1.03-1.69a36.643,36.643,0,0,0-4.99-6.13c-.95-.92-1.92-1.81-2.95-2.63q-.765-.63-1.56-1.2c-.51-.37-1.09-.76-1.54-1.03l-.06-.04a2.5,2.5,0,0,1,1.294-4.638m0-4h0a6.533,6.533,0,0,0-5.572,3.145,6.485,6.485,0,0,0,2.123,8.863q.077.051.157.1c.337.2.816.523,1.249.838.474.34.927.688,1.366,1.05l.051.042c.795.633,1.64,1.387,2.659,2.374a32.559,32.559,0,0,1,4.38,5.376c.139.229.285.454.431.679.167.257.325.5.4.656q.024.049.049.1l.093.177a28.013,28.013,0,0,0-4.2-.316,31.287,31.287,0,0,0-21.607,8.925C25.435,47.391,20,55.343,20,68a61.883,61.883,0,0,0,10.974,34.106C37.8,112.057,46.032,118,53,118c6.83,0,9.5-4.018,10.938-6.176l.062-.092.062.092C65.5,113.982,68.17,118,75,118c14.1,0,33-24.72,33-50a34.985,34.985,0,0,0-7.247-22A31.8,31.8,0,0,0,83.9,35a29.931,29.931,0,0,0-7.518-.971,27.614,27.614,0,0,0-7.692,1.083l-.1-.41q-.041-.166-.1-.328l-.36-1.05-.023-.065c-.077-.213-.149-.428-.222-.645-.168-.5-.359-1.066-.609-1.652l-.032-.073-.91-2.02c-.265-.6-.57-1.143-.839-1.623-.106-.188-.212-.376-.314-.568-.016-.031-.033-.061-.05-.091a44.957,44.957,0,0,0-5.653-7.872c-1.273-1.388-2.348-2.466-3.414-3.427-.575-.531-1.183-1.056-1.858-1.6-.554-.452-1.189-.956-2.01-1.521a4.536,4.536,0,0,0-.541-.35,6.5,6.5,0,0,0-3.244-.869Z"/><g id="_Group_" data-name="&lt;Group&gt;"><path class="cls-4" d="M66,45.5a1.5,1.5,0,0,1-2.99.14L63,45.5a40.58,40.58,0,0,0-.59-4.83,20.089,20.089,0,0,0-.8-2.95l-.28-.95-.38-.91c-.27-.6-.49-1.22-.78-1.81l-.92-1.75c-.29-.59-.69-1.12-1.03-1.69a36.646,36.646,0,0,0-4.99-6.13c-.95-.92-1.92-1.81-2.95-2.63q-.765-.63-1.56-1.2c-.51-.37-1.09-.76-1.54-1.03l-.06-.04A2.5,2.5,0,0,1,49.7,15.3a.5.5,0,0,1,.12.08c.72.49,1.27.92,1.87,1.41.58.47,1.14.95,1.68,1.45,1.1.99,2.13,2.05,3.13,3.14a40.97,40.97,0,0,1,5.15,7.17c.35.66.74,1.28,1.04,1.96l.91,2.02c.29.68.5,1.4.75,2.09l.36,1.05.27,1.08a22.955,22.955,0,0,1,.74,3.85A44.715,44.715,0,0,1,66,45.5Z"/><path class="cls-5" d="M80.25,15.75a12.911,12.911,0,0,1-16.5,16.5c-.11-.32-.22-.64-.3-.97A12.913,12.913,0,0,1,79.28,15.44C79.61,15.53,79.93,15.64,80.25,15.75Z"/><path class="cls-6" d="M82.9,38.87C94.01,41.75,104,51.92,104,68c0,24-18,46-29,46-8,0-7-7-11-7s-3,7-11,7c-5.53,0-12.84-5.57-18.73-14.16C28.44,91.36,24,79.93,24,68c0-24.63,23.43-35.41,38.41-27.33A40.58,40.58,0,0,1,63,45.5l.01.14A1.5,1.5,0,0,0,66,45.5a44.715,44.715,0,0,0-.28-4.9A23.881,23.881,0,0,1,82.9,38.87Z"/><path class="cls-7" d="M62.41,40.67C47.43,32.59,24,43.37,24,68c0,11.93,4.44,23.36,10.27,31.84C40.16,108.43,47.47,114,53,114c8,0,7-7,11-7s3,7,11,7c11,0,29-22,29-46,0-16.08-9.99-26.25-21.1-29.13A23.881,23.881,0,0,0,65.72,40.6"/><path class="cls-7" d="M77.22,29.22a12.9,12.9,0,0,1-13.47,3.03c-.11-.32-.22-.64-.3-.97A12.913,12.913,0,0,1,79.28,15.44c.33.09.65.2.97.31A12.9,12.9,0,0,1,77.22,29.22Z"/><path class="cls-7" d="M62.41,40.67a20.089,20.089,0,0,0-.8-2.95l-.28-.95-.38-.91c-.27-.6-.49-1.22-.78-1.81l-.92-1.75c-.29-.59-.69-1.12-1.03-1.69a36.646,36.646,0,0,0-4.99-6.13c-.95-.92-1.92-1.81-2.95-2.63q-.765-.63-1.56-1.2c-.51-.37-1.09-.76-1.54-1.03l-.06-.04A2.5,2.5,0,0,1,49.7,15.3a.5.5,0,0,1,.12.08c.72.49,1.27.92,1.87,1.41.58.47,1.14.95,1.68,1.45,1.1.99,2.13,2.05,3.13,3.14a40.97,40.97,0,0,1,5.15,7.17c.35.66.74,1.28,1.04,1.96l.91,2.02c.29.68.5,1.4.75,2.09l.36,1.05.27,1.08a22.955,22.955,0,0,1,.74,3.85A44.715,44.715,0,0,1,66,45.5a1.5,1.5,0,0,1-2.99.14L63,45.5A40.58,40.58,0,0,0,62.41,40.67Z"/></g><g class="cls-8"><circle class="cls-3" cx="50" cy="56" r="2"/><circle class="cls-3" cx="44" cy="68" r="2"/><circle class="cls-3" cx="38" cy="59" r="2"/></g><g class="cls-9"><path class="Graphic-Style-2" d="M104,68c0,24-18,46-29,46-8,0-7-7-11-7s-3,7-11,7c-5.53,0-12.84-5.57-18.73-14.16a28.389,28.389,0,0,1,5.22.05,6.2,6.2,0,0,1,2.89.74c1.2.8,1.67,2.31,2.42,3.54,2.62,4.25,9.74,4.55,12.7.52a11.323,11.323,0,0,1,2.01-2.58,5.51,5.51,0,0,1,3.81-.71c4.58.43,10.32,6.05,14.68,4.6,9-3,7-12,15.35-20.14a8.135,8.135,0,0,0,2.09-5.43c.12-2.71-1.56-5.29-1.3-7.99.19-2.01,1.41-3.75,2.06-5.65,1.26-3.73.2-7.95-2.01-11.2s-5.42-5.68-8.75-7.79c-1.47-.92-3.1-1.98-3.51-3.67a6.286,6.286,0,0,1,.29-3.06c.19-.73.42-1.47.68-2.2C94.01,41.75,104,51.92,104,68Z"/><path class="Graphic-Style-2" d="M77.22,29.22a12.9,12.9,0,0,1-13.47,3.03c-.11-.32-.22-.64-.3-.97a5.18,5.18,0,0,1,1.53-1.63,8.124,8.124,0,0,1,5.13-1.18,5.379,5.379,0,0,0,2.56-.14,3.919,3.919,0,0,0,1.72-1.93c1.85-3.54,2.56-7.84,4.89-10.96.33.09.65.2.97.31A12.9,12.9,0,0,1,77.22,29.22Z"/></g></g></g></svg>