<svg xmlns="http://www.w3.org/2000/svg" viewBox="0 0 128 128"><defs><style>.cls-1{isolation:isolate;}.cls-2{mix-blend-mode:multiply;}.cls-3{fill:#302a27;}.cls-4{fill:#d94b58;}.cls-5{fill:#78c17b;}.cls-6{fill:#c49b83;}.cls-7{opacity:0.12;}.cls-8{fill:none;stroke:#302a27;stroke-linecap:round;stroke-linejoin:round;stroke-width:2px;}</style></defs><title>cherries</title><g class="cls-1"><g id="icons" class="cls-2"><path class="cls-3" d="M85,113c-8.012,0-18.065-2.592-20.463-14.939a30.741,30.741,0,0,1-.537-6C64,83.583,67.524,75,74.26,75a15.791,15.791,0,0,1,7.061,1.265,9.574,9.574,0,0,0,7.359,0A15.791,15.791,0,0,1,95.74,75a7.325,7.325,0,0,1,3.547.895C104.236,78.52,106,86.246,106,92.061,106,105.759,98.738,113,85,113Z"/><path class="cls-3" d="M95.74,77a5.352,5.352,0,0,1,2.59.65c3.94,2.09,5.67,8.91,5.67,14.41C104,104.29,98,111,85,111c-10.85,0-16.82-4.67-18.5-13.32a29.009,29.009,0,0,1-.5-5.62C66,85.47,68.48,77,74.26,77,81,77,80,79,85,79s4-2,10.74-2m0-4a17.744,17.744,0,0,0-7.829,1.419,7.58,7.58,0,0,1-5.822,0A17.744,17.744,0,0,0,74.26,73c-2.45,0-7,.961-9.936,7.4A29.141,29.141,0,0,0,62,92.06a32.727,32.727,0,0,0,.576,6.4C64.04,106,69.122,115,85,115c14.832,0,23-8.147,23-22.94,0-6.37-2.042-14.891-7.8-17.944A9.257,9.257,0,0,0,95.74,73Z"/><path class="cls-3" d="M38.087,43a18.014,18.014,0,0,1-5.868-.979,2,2,0,0,1-1.243-1.249,18.158,18.158,0,0,1-.562-2.025A17.913,17.913,0,0,1,47.916,17a18.109,18.109,0,0,1,3.805.405,16.567,16.567,0,0,1,2.07.577,2,2,0,0,1,1.23,1.237A17.922,17.922,0,0,1,38.087,43Z"/><path class="cls-3" d="M47.917,19a16.083,16.083,0,0,1,3.383.36,14.6,14.6,0,0,1,1.83.51A15.935,15.935,0,0,1,32.87,40.13,15.92,15.92,0,0,1,47.917,19m0-4A19.912,19.912,0,0,0,28.462,39.185a19.993,19.993,0,0,0,.619,2.23,4,4,0,0,0,2.487,2.5A19.989,19.989,0,0,0,38.087,45,19.922,19.922,0,0,0,56.912,18.568a4,4,0,0,0-2.46-2.474,18.686,18.686,0,0,0-2.331-.65,20.068,20.068,0,0,0-4.2-.445Z"/><path class="cls-3" d="M43,117c-7.617,0-17.3-2.357-20.158-13.586a24.082,24.082,0,0,1-.61-3.365A32.182,32.182,0,0,1,22,96.061C22,87.583,25.524,79,32.26,79a15.783,15.783,0,0,1,7.055,1.264,11.315,11.315,0,0,0,1.182.441c.025-.042.052-.084.079-.125a32.1,32.1,0,0,0,1.888-3.311c.556-1.13,1.093-2.312,1.632-3.595.994-2.385,1.9-4.926,2.7-7.547A114.95,114.95,0,0,0,50.334,50.3a153.5,153.5,0,0,0,1.6-16.27c.14-2.759.208-5.637.208-8.8,0-2.423-.047-4.983-.139-7.61v-.2a4.462,4.462,0,0,1,7.335-3.412,47.017,47.017,0,0,1,3.45,3.269c.967,1,1.961,2.1,3.041,3.369a85.459,85.459,0,0,1,5.442,7.1,99.815,99.815,0,0,1,8.676,15.472,107.791,107.791,0,0,1,5.862,16.64A118.87,118.87,0,0,1,88.979,77.1a3.5,3.5,0,0,1-3.1,3.854,3.586,3.586,0,0,1-.385.021,3.516,3.516,0,0,1-3.465-3.026,111.819,111.819,0,0,0-3.447-16.09A98.992,98.992,0,0,0,72.688,46.6a91.892,91.892,0,0,0-8.354-13.939c-1.128-1.534-2.314-3.034-3.538-4.476-.093,2.17-.221,4.307-.382,6.391a163.623,163.623,0,0,1-2.2,17.072,121.025,121.025,0,0,1-4.281,16.772c-.96,2.85-2.035,5.593-3.193,8.155-.439.968-.89,1.907-1.347,2.806A21.133,21.133,0,0,1,53.74,79a7.281,7.281,0,0,1,1.45.14,7.174,7.174,0,0,1,2.452.959C62.328,82.89,64,90.444,64,96.061,64,109.759,56.738,117,43,117Z"/><path class="cls-3" d="M56.46,14.96a2.461,2.461,0,0,1,1.59.58c1.26,1.07,2.26,2.06,3.3,3.13s2,2.15,2.95,3.27a82.827,82.827,0,0,1,5.32,6.94,97.63,97.63,0,0,1,8.5,15.16,105.4,105.4,0,0,1,5.75,16.32,116.571,116.571,0,0,1,3.12,16.96,1.5,1.5,0,0,1-2.98.36A113.653,113.653,0,0,0,80.5,61.3a100.8,100.8,0,0,0-6.01-15.57,93.639,93.639,0,0,0-8.54-14.25q-2.46-3.345-5.22-6.41c-.58-.64-1.17-1.27-1.78-1.89-.07,3.75-.24,7.49-.53,11.24a162.6,162.6,0,0,1-2.17,16.86,119.857,119.857,0,0,1-4.21,16.5c-.91,2.7-1.94,5.36-3.12,7.97-.59,1.3-1.22,2.59-1.9,3.86-.61,1.1-1.2,2.14-1.94,3.24,2.8-.47,3.05-1.85,8.66-1.85a5.432,5.432,0,0,1,2.85.8C60.35,84.04,62,90.68,62,96.06,62,108.29,56,115,43,115c-10.32,0-16.22-4.23-18.22-12.08a22.04,22.04,0,0,1-.56-3.09A30.235,30.235,0,0,1,24,96.06C24,89.47,26.48,81,32.26,81c6.28,0,5.84,1.74,9.8,1.97a1.5,1.5,0,0,1,.18-1.28l.05-.08a33.726,33.726,0,0,0,1.96-3.44c.6-1.22,1.16-2.46,1.69-3.72,1.05-2.52,1.97-5.11,2.77-7.74a117.781,117.781,0,0,0,3.6-16.1,156.623,156.623,0,0,0,1.62-16.48c.15-2.96.21-5.93.21-8.9q0-3.84-.14-7.68v-.13a2.458,2.458,0,0,1,2.46-2.46m0-4A6.467,6.467,0,0,0,50,17.42v.13q0,.07,0,.141c.091,2.6.138,5.132.138,7.539,0,3.132-.067,5.977-.2,8.7a151.686,151.686,0,0,1-1.577,16.066,112.981,112.981,0,0,1-3.475,15.552c-.778,2.558-1.665,5.036-2.635,7.366-.519,1.234-1.04,2.38-1.587,3.493-.337.667-.672,1.291-.992,1.843A17.878,17.878,0,0,0,32.26,77c-2.45,0-7,.961-9.936,7.4A29.141,29.141,0,0,0,20,96.06a34.429,34.429,0,0,0,.247,4.238,26.133,26.133,0,0,0,.659,3.62C22.658,110.793,27.915,119,43,119c14.832,0,23-8.147,23-22.94a30.764,30.764,0,0,0-1.505-9.588c-1.291-3.823-3.252-6.545-5.829-8.092A9.429,9.429,0,0,0,53.74,77q-.525,0-1,.014c1.121-2.515,2.16-5.187,3.093-7.956a122.827,122.827,0,0,0,4.353-17.05,165.527,165.527,0,0,0,2.224-17.269q.046-.6.089-1.2l.231.313a89.811,89.811,0,0,1,8.165,13.629,97,97,0,0,1,5.767,14.939A110.006,110.006,0,0,1,80.048,78.23a5.5,5.5,0,0,0,9.73,2.7,5.453,5.453,0,0,0,1.188-4.048,120.853,120.853,0,0,0-3.227-17.538,109.656,109.656,0,0,0-5.965-16.932,101.919,101.919,0,0,0-8.857-15.8,87.215,87.215,0,0,0-5.578-7.276c-1.1-1.3-2.124-2.432-3.12-3.457a49.016,49.016,0,0,0-3.58-3.391A6.506,6.506,0,0,0,56.46,10.96Z"/><g id="_Group_" data-name="&lt;Group&gt;"><path class="cls-4" d="M98.33,77.65c3.94,2.09,5.67,8.91,5.67,14.41C104,104.29,98,111,85,111c-10.85,0-16.82-4.67-18.5-13.32a29.012,29.012,0,0,1-.5-5.62C66,85.47,68.48,77,74.26,77,81,77,80,79,85,79s4-2,10.74-2A5.351,5.351,0,0,1,98.33,77.65Z"/><path class="cls-4" d="M42.62,83.74a1.5,1.5,0,0,0,2.09-.35c.13-.18.25-.36.37-.54,2.8-.47,3.05-1.85,8.66-1.85a5.432,5.432,0,0,1,2.85.8C60.35,84.04,62,90.68,62,96.06,62,108.29,56,115,43,115c-10.32,0-16.22-4.23-18.22-12.08a22.032,22.032,0,0,1-.56-3.09A30.23,30.23,0,0,1,24,96.06C24,89.47,26.48,81,32.26,81c6.28,0,5.84,1.74,9.8,1.97A1.576,1.576,0,0,0,42.62,83.74Z"/><path class="cls-5" d="M53.13,19.87A15.928,15.928,0,0,1,32.87,40.13,15.925,15.925,0,0,1,51.3,19.36,14.609,14.609,0,0,1,53.13,19.87Z"/><path class="cls-6" d="M44.71,83.39a1.5,1.5,0,0,1-2.09.35,1.576,1.576,0,0,1-.56-.77,1.5,1.5,0,0,1,.18-1.28l.05-.08a33.745,33.745,0,0,0,1.96-3.44c.6-1.22,1.16-2.46,1.69-3.72,1.05-2.52,1.97-5.11,2.77-7.74a117.783,117.783,0,0,0,3.6-16.1,156.607,156.607,0,0,0,1.62-16.48c.15-2.96.21-5.93.21-8.9q0-3.84-.14-7.68v-.13a2.463,2.463,0,0,1,4.05-1.88c1.26,1.07,2.26,2.06,3.3,3.13s2,2.15,2.95,3.27a82.835,82.835,0,0,1,5.32,6.94,97.632,97.632,0,0,1,8.5,15.16,105.393,105.393,0,0,1,5.75,16.32,116.577,116.577,0,0,1,3.12,16.96,1.5,1.5,0,0,1-2.98.36A113.655,113.655,0,0,0,80.5,61.3a100.809,100.809,0,0,0-6.01-15.57,93.642,93.642,0,0,0-8.54-14.25q-2.46-3.345-5.22-6.41c-.58-.64-1.17-1.27-1.78-1.89-.07,3.75-.24,7.49-.53,11.24a162.59,162.59,0,0,1-2.17,16.86,119.851,119.851,0,0,1-4.21,16.5c-.91,2.7-1.94,5.36-3.12,7.97-.59,1.3-1.22,2.59-1.9,3.86-.61,1.1-1.2,2.14-1.94,3.24C44.96,83.03,44.84,83.21,44.71,83.39Z"/><g class="cls-7"><path class="cls-3" d="M104,92.06C104,104.29,98,111,85,111c-10.85,0-16.82-4.67-18.5-13.32a6.933,6.933,0,0,1,1.18.05c2.25.27,4.13,1.78,5.8,3.32s3.33,3.2,5.47,3.93a13.6,13.6,0,0,0,5.32.36,26.757,26.757,0,0,0,9.21-1.99,11.259,11.259,0,0,0,6.3-6.69c1.54-5.22-2.03-10.57-2.18-16.02a4.8,4.8,0,0,1,.73-2.99C102.27,79.74,104,86.56,104,92.06Z"/><path class="cls-3" d="M62,96.06C62,108.29,56,115,43,115c-10.32,0-16.22-4.23-18.22-12.08a22.04,22.04,0,0,1-.56-3.09c4.39.01,5.8,4.44,8.18,7.41,1.69,2.11,4.8,2.24,7.5,2.19,1.39-.03,2.78-.05,4.17-.08a15.762,15.762,0,0,0,5.52-.76c4.05-1.58,6.03-6.05,7.6-10.1A8.7,8.7,0,0,0,58,95.23a9.958,9.958,0,0,0-.44-2.34,39.329,39.329,0,0,1-1.27-8.5,7.013,7.013,0,0,1,.3-2.59C60.35,84.04,62,90.68,62,96.06Z"/><path class="cls-3" d="M49.34,36.34a15.924,15.924,0,0,1-16.47,3.79,15.992,15.992,0,0,1-.5-1.8c1.71-1.57,4.28-1.83,6.55-2.46A16.96,16.96,0,0,0,50.7,23.05c.23-1.19.36-2.47.6-3.69a14.6,14.6,0,0,1,1.83.51A15.924,15.924,0,0,1,49.34,36.34Z"/><path class="cls-8" d="M104,92.06C104,104.29,98,111,85,111c-10.85,0-16.82-4.67-18.5-13.32a6.933,6.933,0,0,1,1.18.05c2.25.27,4.13,1.78,5.8,3.32s3.33,3.2,5.47,3.93a13.6,13.6,0,0,0,5.32.36,26.757,26.757,0,0,0,9.21-1.99,11.259,11.259,0,0,0,6.3-6.69c1.54-5.22-2.03-10.57-2.18-16.02a4.8,4.8,0,0,1,.73-2.99C102.27,79.74,104,86.56,104,92.06Z"/><path class="cls-8" d="M62,96.06C62,108.29,56,115,43,115c-10.32,0-16.22-4.23-18.22-12.08a22.04,22.04,0,0,1-.56-3.09c4.39.01,5.8,4.44,8.18,7.41,1.69,2.11,4.8,2.24,7.5,2.19,1.39-.03,2.78-.05,4.17-.08a15.762,15.762,0,0,0,5.52-.76c4.05-1.58,6.03-6.05,7.6-10.1A8.7,8.7,0,0,0,58,95.23a9.958,9.958,0,0,0-.44-2.34,39.329,39.329,0,0,1-1.27-8.5,7.013,7.013,0,0,1,.3-2.59C60.35,84.04,62,90.68,62,96.06Z"/><path class="cls-8" d="M49.34,36.34a15.924,15.924,0,0,1-16.47,3.79,15.992,15.992,0,0,1-.5-1.8c1.71-1.57,4.28-1.83,6.55-2.46A16.96,16.96,0,0,0,50.7,23.05c.23-1.19.36-2.47.6-3.69a14.6,14.6,0,0,1,1.83.51A15.924,15.924,0,0,1,49.34,36.34Z"/><path class="cls-8" d="M104,92.06C104,104.29,98,111,85,111c-10.85,0-16.82-4.67-18.5-13.32a6.933,6.933,0,0,1,1.18.05c2.25.27,4.13,1.78,5.8,3.32s3.33,3.2,5.47,3.93a13.6,13.6,0,0,0,5.32.36,26.757,26.757,0,0,0,9.21-1.99,11.259,11.259,0,0,0,6.3-6.69c1.54-5.22-2.03-10.57-2.18-16.02a4.8,4.8,0,0,1,.73-2.99C102.27,79.74,104,86.56,104,92.06Z"/><path class="cls-8" d="M62,96.06C62,108.29,56,115,43,115c-10.32,0-16.22-4.23-18.22-12.08a22.04,22.04,0,0,1-.56-3.09c4.39.01,5.8,4.44,8.18,7.41,1.69,2.11,4.8,2.24,7.5,2.19,1.39-.03,2.78-.05,4.17-.08a15.762,15.762,0,0,0,5.52-.76c4.05-1.58,6.03-6.05,7.6-10.1A8.7,8.7,0,0,0,58,95.23a9.958,9.958,0,0,0-.44-2.34,39.329,39.329,0,0,1-1.27-8.5,7.013,7.013,0,0,1,.3-2.59C60.35,84.04,62,90.68,62,96.06Z"/><path class="cls-8" d="M49.34,36.34a15.924,15.924,0,0,1-16.47,3.79,15.992,15.992,0,0,1-.5-1.8c1.71-1.57,4.28-1.83,6.55-2.46A16.96,16.96,0,0,0,50.7,23.05c.23-1.19.36-2.47.6-3.69a14.6,14.6,0,0,1,1.83.51A15.924,15.924,0,0,1,49.34,36.34Z"/></g><path class="cls-8" d="M45.08,82.85c2.8-.47,3.05-1.85,8.66-1.85a5.432,5.432,0,0,1,2.85.8C60.35,84.04,62,90.68,62,96.06,62,108.29,56,115,43,115c-10.32,0-16.22-4.23-18.22-12.08a22.032,22.032,0,0,1-.56-3.09A30.23,30.23,0,0,1,24,96.06C24,89.47,26.48,81,32.26,81c6.28,0,5.84,1.74,9.8,1.97"/><path class="cls-8" d="M104,92.06C104,104.29,98,111,85,111c-10.85,0-16.82-4.67-18.5-13.32a29.012,29.012,0,0,1-.5-5.62C66,85.47,68.48,77,74.26,77,81,77,80,79,85,79s4-2,10.74-2a5.351,5.351,0,0,1,2.59.65C102.27,79.74,104,86.56,104,92.06Z"/><path class="cls-8" d="M42.06,82.97a1.5,1.5,0,0,1,.18-1.28l.05-.08a33.745,33.745,0,0,0,1.96-3.44c.6-1.22,1.16-2.46,1.69-3.72,1.05-2.52,1.97-5.11,2.77-7.74a117.783,117.783,0,0,0,3.6-16.1,156.607,156.607,0,0,0,1.62-16.48c.15-2.96.21-5.93.21-8.9q0-3.84-.14-7.68v-.13a2.463,2.463,0,0,1,4.05-1.88c1.26,1.07,2.26,2.06,3.3,3.13s2,2.15,2.95,3.27a82.835,82.835,0,0,1,5.32,6.94,97.632,97.632,0,0,1,8.5,15.16,105.393,105.393,0,0,1,5.75,16.32,116.577,116.577,0,0,1,3.12,16.96,1.5,1.5,0,0,1-2.98.36A113.655,113.655,0,0,0,80.5,61.3a100.809,100.809,0,0,0-6.01-15.57,93.642,93.642,0,0,0-8.54-14.25q-2.46-3.345-5.22-6.41c-.58-.64-1.17-1.27-1.78-1.89-.07,3.75-.24,7.49-.53,11.24a162.59,162.59,0,0,1-2.17,16.86,119.851,119.851,0,0,1-4.21,16.5c-.91,2.7-1.94,5.36-3.12,7.97-.59,1.3-1.22,2.59-1.9,3.86-.61,1.1-1.2,2.14-1.94,3.24-.12.18-.24.36-.37.54a1.5,1.5,0,0,1-2.09.35A1.576,1.576,0,0,1,42.06,82.97Z"/><path class="cls-8" d="M49.34,36.34a15.924,15.924,0,0,1-16.47,3.79A15.925,15.925,0,0,1,51.3,19.36a14.609,14.609,0,0,1,1.83.51A15.924,15.924,0,0,1,49.34,36.34Z"/></g></g></g></svg>